<svg width="814" height="119" viewBox="0 0 814 119" fill="none" xmlns="http://www.w3.org/2000/svg">
<rect x="379" y="3" width="116" height="116" fill="#1E1E1E"/>
<path d="M23.1816 95H2.23438L25.835 23.5H52.3682L75.9688 95H55.0215L39.3809 43.1904H38.8223L23.1816 95ZM19.2715 66.791H58.6523V81.3145H19.2715V66.791ZM82.8552 23.5H107.014L123.633 63.998H124.47L141.089 23.5H165.248V95H146.256V53.6641H145.697L129.777 94.4414H118.326L102.406 53.3848H101.847V95H82.8552V23.5ZM193.02 95H172.073L195.674 23.5H222.207L245.807 95H224.86L209.22 43.1904H208.661L193.02 95ZM189.11 66.791H228.491V81.3145H189.11V66.791ZM314.558 23.5V95H298.359L272.524 57.4346H272.105V95H252.694V23.5H269.172L294.588 60.9258H295.147V23.5H314.558ZM343.151 23.5V95H323.74V23.5H343.151Z" fill="black"/>
<path d="M530.608 95V23.5H561.61C567.057 23.5 571.63 24.2332 575.331 25.6995C579.055 27.1658 581.859 29.2372 583.745 31.9138C585.653 34.5904 586.607 37.7441 586.607 41.375C586.607 44.005 586.026 46.4023 584.862 48.5669C583.721 50.7314 582.115 52.5469 580.044 54.0132C577.972 55.4562 575.552 56.457 572.782 57.0156V57.7139C575.854 57.8302 578.647 58.6099 581.161 60.053C583.675 61.4727 585.676 63.4395 587.166 65.9531C588.656 68.4435 589.4 71.3761 589.4 74.751C589.4 78.6611 588.376 82.1407 586.328 85.1897C584.303 88.2387 581.417 90.636 577.67 92.3816C573.923 94.1272 569.454 95 564.264 95H530.608ZM550.02 79.499H559.097C562.355 79.499 564.799 78.8939 566.428 77.6836C568.057 76.45 568.872 74.6346 568.872 72.2373C568.872 70.5615 568.488 69.1418 567.72 67.978C566.952 66.8143 565.858 65.9298 564.438 65.3247C563.042 64.7196 561.354 64.417 559.376 64.417H550.02V79.499ZM550.02 52.4072H557.979C559.679 52.4072 561.18 52.1396 562.483 51.6042C563.787 51.0689 564.799 50.3009 565.521 49.3C566.265 48.276 566.638 47.0308 566.638 45.5645C566.638 43.3533 565.846 41.6659 564.264 40.5022C562.681 39.3152 560.679 38.7217 558.259 38.7217H550.02V52.4072ZM665.544 59.25C665.544 67.21 663.996 73.9247 660.9 79.3943C657.805 84.8406 653.627 88.9718 648.367 91.7881C643.107 94.5811 637.242 95.9775 630.771 95.9775C624.254 95.9775 618.366 94.5694 613.106 91.7532C607.869 88.9137 603.703 84.7708 600.607 79.3245C597.535 73.8549 595.999 67.1634 595.999 59.25C595.999 51.29 597.535 44.5869 600.607 39.1406C603.703 33.6711 607.869 29.5398 613.106 26.7468C618.366 23.9306 624.254 22.5225 630.771 22.5225C637.242 22.5225 643.107 23.9306 648.367 26.7468C653.627 29.5398 657.805 33.6711 660.9 39.1406C663.996 44.5869 665.544 51.29 665.544 59.25ZM645.574 59.25C645.574 54.9674 645.004 51.3599 643.863 48.4272C642.746 45.4714 641.082 43.237 638.871 41.7241C636.683 40.188 633.983 39.4199 630.771 39.4199C627.559 39.4199 624.848 40.188 622.637 41.7241C620.449 43.237 618.785 45.4714 617.644 48.4272C616.527 51.3599 615.969 54.9674 615.969 59.25C615.969 63.5326 616.527 67.1518 617.644 70.1077C618.785 73.0403 620.449 75.2747 622.637 76.8108C624.848 78.3236 627.559 79.0801 630.771 79.0801C633.983 79.0801 636.683 78.3236 638.871 76.8108C641.082 75.2747 642.746 73.0403 643.863 70.1077C645.004 67.1518 645.574 63.5326 645.574 59.25ZM674.525 95V23.5H705.527C710.973 23.5 715.547 24.2332 719.247 25.6995C722.971 27.1658 725.776 29.2372 727.661 31.9138C729.57 34.5904 730.524 37.7441 730.524 41.375C730.524 44.005 729.942 46.4023 728.778 48.5669C727.638 50.7314 726.032 52.5469 723.96 54.0132C721.889 55.4562 719.468 56.457 716.699 57.0156V57.7139C719.771 57.8302 722.564 58.6099 725.078 60.053C727.591 61.4727 729.593 63.4395 731.082 65.9531C732.572 68.4435 733.317 71.3761 733.317 74.751C733.317 78.6611 732.293 82.1407 730.245 85.1897C728.22 88.2387 725.334 90.636 721.586 92.3816C717.839 94.1272 713.37 95 708.18 95H674.525ZM693.936 79.499H703.013C706.272 79.499 708.715 78.8939 710.345 77.6836C711.974 76.45 712.789 74.6346 712.789 72.2373C712.789 70.5615 712.404 69.1418 711.636 67.978C710.868 66.8143 709.774 65.9298 708.355 65.3247C706.958 64.7196 705.271 64.417 703.292 64.417H693.936V79.499ZM693.936 52.4072H701.896C703.595 52.4072 705.096 52.1396 706.4 51.6042C707.703 51.0689 708.715 50.3009 709.437 49.3C710.182 48.276 710.554 47.0308 710.554 45.5645C710.554 43.3533 709.763 41.6659 708.18 40.5022C706.597 39.3152 704.596 38.7217 702.175 38.7217H693.936V52.4072ZM809.46 59.25C809.46 67.21 807.912 73.9247 804.817 79.3943C801.721 84.8406 797.543 88.9718 792.283 91.7881C787.023 94.5811 781.158 95.9775 774.688 95.9775C768.171 95.9775 762.282 94.5694 757.022 91.7532C751.785 88.9137 747.619 84.7708 744.524 79.3245C741.451 73.8549 739.915 67.1634 739.915 59.25C739.915 51.29 741.451 44.5869 744.524 39.1406C747.619 33.6711 751.785 29.5398 757.022 26.7468C762.282 23.9306 768.171 22.5225 774.688 22.5225C781.158 22.5225 787.023 23.9306 792.283 26.7468C797.543 29.5398 801.721 33.6711 804.817 39.1406C807.912 44.5869 809.46 51.29 809.46 59.25ZM789.49 59.25C789.49 54.9674 788.92 51.3599 787.78 48.4272C786.663 45.4714 784.998 43.237 782.787 41.7241C780.599 40.188 777.9 39.4199 774.688 39.4199C771.476 39.4199 768.764 40.188 766.553 41.7241C764.365 43.237 762.701 45.4714 761.561 48.4272C760.444 51.3599 759.885 54.9674 759.885 59.25C759.885 63.5326 760.444 67.1518 761.561 70.1077C762.701 73.0403 764.365 75.2747 766.553 76.8108C768.764 78.3236 771.476 79.0801 774.688 79.0801C777.9 79.0801 780.599 78.3236 782.787 76.8108C784.998 75.2747 786.663 73.0403 787.78 70.1077C788.92 67.1518 789.49 63.5326 789.49 59.25Z" fill="black"/>
</svg>
